# xmcd
#
# Track frame offsets:
#	150
#	27685
#	49209
#	69999
#	89779
#	110386
#	129021
#	150296
#	170978
#	190539
#	208215
#	226546
#	248398
#	267624
#
# Disc length: 3825 seconds
#
# Revision: 1
# Processed by: cddbd v1.4PL0 Copyright (c) Steve Scherf et al.
# Submitted via: EasyCDDAExtractor 5.0.7
#
DISCID=ba0eef0e
DTITLE=박정현 - The Romantic Story of 박정현
DYEAR=2002
DGENRE=R&B
TTITLE0=아무말도, 아무것도
TTITLE1=몽중인 (夢中人)
TTITLE2=오랜만에 (Acoustic Version)
TTITLE3=사랑보다 깊은 상처
TTITLE4=까만 일기장
TTITLE5=나의 하루
TTITLE6=편지할께요
TTITLE7=You mean everything to me
TTITLE8=다신 없겠죠?
TTITLE9=P.S. I Love You
TTITLE10=친구처럼
TTITLE11=전야제
TTITLE12=늘 푸른
TTITLE13=힘내!!!!
EXTD=
EXTT0=
EXTT1=
EXTT2=
EXTT3=
EXTT4=
EXTT5=
EXTT6=
EXTT7=
EXTT8=
EXTT9=
EXTT10=
EXTT11=
EXTT12=
EXTT13=
PLAYORDER=
